<svg width="72" height="70" viewBox="0 0 72 70" fill="none" xmlns="http://www.w3.org/2000/svg">
<path d="M70.9956 34.4603C70.6993 15.1299 54.7835 -0.292106 35.4602 0.00419918C16.1299 0.300505 0.707909 16.2163 1.00421 35.5397C1.30051 54.8701 17.2163 70.2921 36.5396 69.9958C55.87 69.6995 71.299 53.7907 70.9956 34.4603Z" fill="url(#paint0_linear_805_132)"/>
<path d="M35.5 63C20.3122 63 8 50.6878 8 35.5C8 20.3122 20.3122 8 35.5 8C50.6878 8 63 20.3122 63 35.5C63 50.6878 50.6878 63 35.5 63Z" fill="#B897FD"/>
<path d="M34.1555 22.8915L34.1861 21L37.8399 21.0503L37.8093 22.9417C40.9681 23.5676 42.5551 25.7698 42.4939 29.2238L42.4786 30.0233L38.2533 29.9639L38.2737 28.9085C38.3043 27.0901 37.5031 26.3866 36.0845 26.3683C34.6658 26.35 33.8391 27.0262 33.8085 28.8445C33.7167 34.0803 42.4429 34.455 42.3204 41.7239C42.2592 45.1778 40.5598 47.3708 37.3806 47.9099L37.35 49.7648L33.6962 49.7146L33.7269 47.8597C30.5273 47.2338 28.9453 44.9951 29.0014 41.5411L29.0321 39.7958L33.2574 39.8552L33.2217 41.8563C33.191 43.6747 34.0739 44.3417 35.4925 44.36C36.9163 44.3783 37.8195 43.7387 37.8501 41.9203C37.942 36.6845 29.2158 36.3099 29.3382 29.041C29.3995 25.6281 31.0222 23.4671 34.1555 22.8915Z" fill="#3B3B3B"/>
<defs>
<linearGradient id="paint0_linear_805_132" x1="15.1209" y1="-5.26542e-07" x2="72.8505" y2="69.2764" gradientUnits="userSpaceOnUse">
<stop stop-color="#BA99FD"/>
<stop offset="1" stop-color="#CEC0FD"/>
</linearGradient>
</defs>
</svg>
