<svg width="64" height="70" viewBox="0 0 64 70" fill="none" xmlns="http://www.w3.org/2000/svg">
<g id="Purse icon">
<path id="Vector" d="M58.551 64.1761H5.15307C2.30713 64.1761 0 61.8689 0 59.023V14.5593C0 11.7134 2.30713 9.40625 5.15307 9.40625H58.551C61.397 9.40625 63.7041 11.7134 63.7041 14.5593V59.023C63.7041 61.8689 61.397 64.1761 58.551 64.1761Z" fill="#F8D57E"/>
<path id="Vector_2" d="M57.3579 62.958H6.34159C3.62253 62.958 1.41821 60.7537 1.41821 58.0347V15.5542C1.41821 12.8352 3.62239 10.6309 6.34159 10.6309H57.3578C60.0769 10.6309 62.2812 12.835 62.2812 15.5542V58.0348C62.2813 60.7539 60.077 62.958 57.3579 62.958Z" fill="#E1C379"/>
<path id="Vector_3" d="M60.2493 23.796L47.4052 1.54965C46.5498 0.067757 44.6547 -0.440016 43.1728 0.415706L2.677 23.796H60.2493Z" fill="#009379"/>
<path id="Union" fill-rule="evenodd" clip-rule="evenodd" d="M63.7041 24.8179V35.3488V41.6907V59.0245C63.7041 61.8705 61.397 64.1776 58.551 64.1776H5.1532C2.30713 64.1776 0 61.8703 0 59.0244V41.6907V35.3488V24.8179C0 22.6883 1.72635 20.9619 3.85601 20.9619H59.8481C61.9777 20.9619 63.7041 22.6883 63.7041 24.8179Z" fill="#FF6250"/>
<path id="Vector_4" d="M49.7481 69.9614L5.0292 64.7677C2.16248 64.4347 0 62.0067 0 59.1207V14.1826C0 15.1484 0.723653 15.9608 1.68273 16.0722L51.0597 21.807C53.9264 22.1401 56.0889 24.568 56.0889 27.454V64.3145C56.0889 67.714 53.1249 70.3538 49.7481 69.9614Z" fill="#F8D57E"/>
<path id="Vector_5" d="M4.00802 21.1901C3.97056 21.1901 3.93255 21.188 3.89441 21.1839L1.848 20.9588C1.2828 20.8966 0.874969 20.3883 0.937177 19.8232C0.999384 19.2582 1.50811 18.8508 2.07276 18.9124L4.11917 19.1375C4.68437 19.1997 5.0922 19.708 5.02999 20.273C4.97202 20.8001 4.52605 21.1901 4.00802 21.1901Z" fill="#F8D57E"/>
<path id="Vector_6" d="M46.057 66.5614C46.0138 66.5614 45.9698 66.5585 45.9258 66.5531L41.9485 66.0474C41.3847 65.9757 40.9855 65.4603 41.0572 64.8962C41.129 64.3324 41.6443 63.9355 42.2084 64.0049L46.1857 64.5106C46.7495 64.5823 47.1489 65.0977 47.077 65.6618C47.0107 66.1816 46.5677 66.5614 46.057 66.5614ZM49.9719 66.0519C49.5858 66.0519 49.2154 65.8335 49.04 65.4608C48.7976 64.9466 49.0181 64.3332 49.5324 64.091C50.5768 63.5989 51.3623 62.7826 51.6875 61.8513C51.875 61.3148 52.4623 61.0318 52.9988 61.2189C53.5354 61.4063 53.8187 61.9934 53.6313 62.5301C53.1176 64.0009 51.9737 65.2168 50.4099 65.9534C50.2681 66.0201 50.119 66.0519 49.9719 66.0519ZM38.1026 65.55C38.0594 65.55 38.0154 65.5471 37.9714 65.5416L33.9941 65.0359C33.4303 64.9643 33.0309 64.4488 33.1028 63.8847C33.1746 63.3209 33.6899 62.9239 34.254 62.9935L38.2313 63.4992C38.7951 63.5708 39.1945 64.0863 39.1225 64.6504C39.0562 65.17 38.613 65.55 38.1026 65.55ZM30.1482 64.5384C30.105 64.5384 30.0611 64.5355 30.0169 64.53L26.0397 64.0243C25.4758 63.9527 25.0765 63.4373 25.1484 62.8732C25.2202 62.3093 25.7356 61.9104 26.2996 61.9819L30.2768 62.4876C30.8407 62.5592 31.24 63.0747 31.1681 63.6388C31.1018 64.1584 30.6586 64.5384 30.1482 64.5384ZM22.1935 63.5268C22.1503 63.5268 22.1064 63.5239 22.0622 63.5185L18.0848 63.0126C17.5208 62.9408 17.1216 62.4255 17.1935 61.8614C17.2653 61.2975 17.7809 60.9004 18.3447 60.9702L22.3221 61.476C22.8861 61.5478 23.2853 62.0631 23.2134 62.6272C23.1474 63.1471 22.7041 63.5268 22.1935 63.5268ZM14.239 62.5152C14.1958 62.5152 14.152 62.5124 14.1078 62.5069L10.1304 62.001C9.56641 61.9292 9.16719 61.414 9.23911 60.8499C9.31089 60.2859 9.82645 59.8887 10.3903 59.9586L14.3677 60.4644C14.9317 60.5362 15.3309 61.0515 15.259 61.6156C15.1928 62.1356 14.7497 62.5152 14.239 62.5152ZM52.8904 59.2374C52.3218 59.2374 51.861 58.7767 51.861 58.208V54.1988C51.861 53.6301 52.3218 53.1694 52.8904 53.1694C53.459 53.1694 53.9197 53.6301 53.9197 54.1988V58.208C53.9199 58.7767 53.4591 59.2374 52.8904 59.2374ZM52.8904 51.219C52.3218 51.219 51.861 50.7582 51.861 50.1896V46.1803C51.861 45.6117 52.3218 45.151 52.8904 45.151C53.459 45.151 53.9197 45.6117 53.9197 46.1803V50.1896C53.9199 50.7581 53.4591 51.219 52.8904 51.219ZM52.8904 43.2004C52.3218 43.2004 51.861 42.7397 51.861 42.1711V38.1618C51.861 37.5932 52.3218 37.1324 52.8904 37.1324C53.459 37.1324 53.9197 37.5932 53.9197 38.1618V42.1711C53.9199 42.7395 53.4591 43.2004 52.8904 43.2004ZM52.8904 35.1819C52.3218 35.1819 51.861 34.7211 51.861 34.1525V30.1432C51.861 29.5746 52.3218 29.1139 52.8904 29.1139C53.459 29.1139 53.9197 29.5746 53.9197 30.1432V34.1525C53.9199 34.721 53.4591 35.1819 52.8904 35.1819ZM51.4507 27.5742C51.1966 27.5742 50.9419 27.4805 50.7429 27.292C49.9799 26.569 48.921 26.1084 47.761 25.9948L47.7338 25.9919C47.1684 25.9311 46.7595 25.4234 46.8205 24.8582C46.8813 24.2929 47.3888 23.8838 47.9542 23.945L47.9717 23.9469C49.575 24.104 51.0655 24.7616 52.1591 25.7975C52.5718 26.1885 52.5893 26.8401 52.1983 27.2529C51.9957 27.4663 51.7235 27.5742 51.4507 27.5742ZM43.8597 25.5597C43.8222 25.5597 43.7842 25.5576 43.7461 25.5534L39.7609 25.1153C39.1958 25.0531 38.7879 24.5447 38.8501 23.9797C38.9123 23.4146 39.421 23.0079 39.9856 23.0689L43.9709 23.507C44.5359 23.5693 44.9439 24.0776 44.8817 24.6426C44.8238 25.1695 44.3777 25.5597 43.8597 25.5597ZM35.8894 24.6834C35.852 24.6834 35.8139 24.6812 35.7758 24.6771L31.7905 24.2389C31.2254 24.1767 30.8174 23.6684 30.8796 23.1033C30.9417 22.5381 31.4513 22.131 32.0152 22.1925L36.0006 22.6307C36.5656 22.6929 36.9736 23.2012 36.9114 23.7663C36.8534 24.2933 36.4074 24.6834 35.8894 24.6834ZM27.9187 23.8071C27.8813 23.8071 27.8432 23.805 27.8051 23.8009L23.8199 23.3627C23.2548 23.3005 22.8469 22.7921 22.9091 22.2271C22.9711 21.662 23.4796 21.2549 24.0447 21.3163L28.0299 21.7544C28.5949 21.8167 29.0029 22.325 28.9407 22.89C28.8829 23.4169 28.4369 23.8071 27.9187 23.8071ZM19.9481 22.9309C19.9107 22.9309 19.8727 22.9287 19.8345 22.9246L15.8493 22.4864C15.2841 22.4242 14.8763 21.9159 14.9385 21.3509C15.0006 20.7859 15.5085 20.3789 16.0741 20.44L20.0593 20.8782C20.6244 20.9404 21.0323 21.4487 20.9701 22.0138C20.9124 22.5407 20.4663 22.9309 19.9481 22.9309ZM11.9776 22.0545C11.9401 22.0545 11.9021 22.0524 11.864 22.0483L7.87876 21.6101C7.3137 21.5479 6.90573 21.0395 6.96794 20.4745C7.03014 19.9096 7.53819 19.5027 8.10352 19.5637L12.0887 20.0018C12.6539 20.0641 13.0618 20.5724 12.9996 21.1374C12.9417 21.6643 12.4956 22.0545 11.9776 22.0545Z" fill="#F8D57E"/>
<path id="Vector_7" d="M6.27816 61.5101C6.23496 61.5101 6.19121 61.5074 6.14705 61.5018L4.10461 61.2421C3.54065 61.1705 3.14129 60.6551 3.21321 60.0911C3.28485 59.5271 3.80028 59.1282 4.36424 59.1997L6.40668 59.4593C6.97065 59.531 7.37 60.0464 7.29809 60.6104C7.23191 61.1303 6.78867 61.5101 6.27816 61.5101Z" fill="#F8D57E"/>
<path id="Vector_8" d="M44.0954 7.66878L37.5072 11.2538C36.649 11.7207 35.5748 11.4037 35.1078 10.5455C34.6409 9.68729 34.9579 8.61309 35.8161 8.14606L42.4045 4.56116C43.2627 4.09426 44.3369 4.41131 44.8039 5.2695C45.2708 6.12754 44.9537 7.20188 44.0954 7.66878Z" fill="white"/>
<path id="Vector_9" d="M45.8337 51.6673C48.6208 51.6673 50.8802 49.4079 50.8802 46.6208C50.8802 43.8336 48.6208 41.5742 45.8337 41.5742C43.0465 41.5742 40.7871 43.8336 40.7871 46.6208C40.7871 49.4079 43.0465 51.6673 45.8337 51.6673Z" fill="url(#paint0_linear_805_141)"/>
<path id="Vector_10" d="M45.8307 50.1013C47.7542 50.1013 49.3134 48.542 49.3134 46.6185C49.3134 44.695 47.7542 43.1357 45.8307 43.1357C43.9072 43.1357 42.3479 44.695 42.3479 46.6185C42.3479 48.542 43.9072 50.1013 45.8307 50.1013Z" fill="url(#paint1_linear_805_141)"/>
</g>
<defs>
<linearGradient id="paint0_linear_805_141" x1="45.8326" y1="43.4536" x2="45.8326" y2="50.7513" gradientUnits="userSpaceOnUse">
<stop stop-color="#FF4C54"/>
<stop offset="1" stop-color="#BE3F45"/>
</linearGradient>
<linearGradient id="paint1_linear_805_141" x1="45.8296" y1="48.8055" x2="45.8296" y2="43.7697" gradientUnits="userSpaceOnUse">
<stop stop-color="#FF4C54"/>
<stop offset="1" stop-color="#BE3F45"/>
</linearGradient>
</defs>
</svg>
